<svg width="1236" height="342" viewBox="0 0 1236 342" fill="none" xmlns="http://www.w3.org/2000/svg">
<g filter="url(#filter0_d_304_19)">
<path d="M199.638 187.5H251.757V210H172.392V81.5039H199.638V187.5ZM345.674 204.814C336.65 209.443 325.137 211.758 311.133 211.758C295.312 211.758 282.949 207.393 274.043 198.662C265.137 189.932 260.683 177.451 260.683 161.221C260.683 144.99 264.785 132.422 272.988 123.516C281.191 114.434 292.412 109.893 306.65 109.893C320.889 109.893 331.846 113.848 339.521 121.758C347.314 129.609 351.211 140.537 351.211 154.541V167.549H287.842C288.135 175.225 290.39 181.201 294.609 185.479C298.887 189.697 304.805 191.807 312.363 191.807C323.496 191.807 334.599 189.229 345.674 184.072V204.814ZM326.074 149.707C325.957 143.145 324.228 138.047 320.889 134.414C317.607 130.781 313.125 128.965 307.441 128.965C301.758 128.965 297.275 130.752 293.994 134.326C290.771 137.9 288.926 143.027 288.457 149.707H326.074ZM370.244 118.594C381.612 112.676 394.063 109.717 407.598 109.717C421.133 109.717 431.358 112.617 438.272 118.418C445.244 124.219 448.731 132.92 448.731 144.521V210H430.01L424.824 196.641H424.121C419.61 202.383 414.981 206.338 410.235 208.506C405.489 210.674 399.248 211.758 391.514 211.758C382.139 211.758 374.698 209.062 369.19 203.672C363.799 198.281 361.104 190.518 361.104 180.381C361.104 170.244 364.707 162.686 371.914 157.705C379.121 152.666 390.166 149.883 405.049 149.355L422.1 148.828V144.521C422.1 134.561 417.002 129.58 406.807 129.58C398.955 129.58 389.727 131.953 379.121 136.699L370.244 118.594ZM388.614 180.82C388.614 188.379 392.949 192.158 401.621 192.158C407.891 192.158 412.871 190.371 416.563 186.797C420.254 183.223 422.1 178.477 422.1 172.559V164.473L411.729 164.824C403.936 165.059 398.135 166.465 394.326 169.043C390.518 171.621 388.614 175.547 388.614 180.82ZM525.86 109.893C529.551 109.893 532.569 110.156 534.913 110.684L532.891 135.82C530.782 135.234 528.145 134.941 524.981 134.941C516.426 134.941 509.747 137.139 504.942 141.533C500.196 145.928 497.823 152.08 497.823 159.99V210H471.016V111.738H491.319L495.274 128.262H496.592C499.756 122.637 503.858 118.213 508.897 114.99C514.053 111.592 519.708 109.893 525.86 109.893ZM603.165 109.893C614.532 109.893 623.175 112.998 629.093 119.209C635.069 125.361 638.058 134.268 638.058 145.928V210H611.251V152.607C611.251 145.459 609.962 140.127 607.384 136.611C604.864 133.096 600.88 131.338 595.431 131.338C587.931 131.338 582.511 133.857 579.171 138.896C575.831 143.936 574.161 152.227 574.161 163.77V210H547.354V111.738H567.833L571.437 124.395H572.931C575.86 119.648 579.933 116.045 585.147 113.584C590.421 111.123 596.427 109.893 603.165 109.893ZM659.113 86.4258C659.113 77.6367 663.976 73.2422 673.703 73.2422C683.429 73.2422 688.292 77.6074 688.292 86.3379C688.292 90.5566 687.062 93.8086 684.601 96.0938C682.14 98.3789 678.507 99.5215 673.703 99.5215C663.976 99.5215 659.113 95.1562 659.113 86.4258ZM687.062 210H660.255V111.738H687.062V210ZM765.685 109.893C777.053 109.893 785.695 112.998 791.613 119.209C797.59 125.361 800.578 134.268 800.578 145.928V210H773.771V152.607C773.771 145.459 772.482 140.127 769.904 136.611C767.385 133.096 763.4 131.338 757.951 131.338C750.451 131.338 745.031 133.857 741.691 138.896C738.351 143.936 736.681 152.227 736.681 163.77V210H709.875V111.738H730.353L733.957 124.395H735.451C738.381 119.648 742.453 116.045 747.668 113.584C752.941 111.123 758.947 109.893 765.685 109.893ZM857.317 189.697H874.016C884.797 189.697 893 192.041 898.625 196.729C904.309 201.357 907.151 208.125 907.151 217.031C907.151 228.516 902.346 237.422 892.737 243.75C883.186 250.078 869.446 253.242 851.516 253.242C837.864 253.242 827.405 250.869 820.139 246.123C812.873 241.377 809.24 234.668 809.24 225.996C809.24 220.078 811.086 215.127 814.778 211.143C818.469 207.158 823.889 204.316 831.037 202.617C828.342 201.562 825.94 199.658 823.83 196.904C821.78 194.15 820.754 191.162 820.754 187.939C820.754 184.658 821.75 181.787 823.742 179.326C825.793 176.807 829.016 174.258 833.41 171.68C828.196 169.395 824.094 165.791 821.106 160.869C818.117 155.947 816.623 150.176 816.623 143.555C816.623 132.832 820.11 124.541 827.082 118.682C834.055 112.822 844.016 109.893 856.965 109.893C859.719 109.893 862.971 110.156 866.721 110.684C870.53 111.152 872.961 111.504 874.016 111.738H908.293V125.361L892.912 129.316C895.725 133.828 897.131 138.75 897.131 144.082C897.131 154.629 893.469 162.861 886.145 168.779C878.821 174.639 868.596 177.568 855.471 177.568L850.637 177.305L846.682 176.865C843.928 178.975 842.551 181.318 842.551 183.896C842.551 187.764 847.473 189.697 857.317 189.697ZM856.965 126.152C847.121 126.152 842.199 132.07 842.199 143.906C842.199 149.355 843.43 153.604 845.891 156.65C848.41 159.697 852.102 161.221 856.965 161.221C861.887 161.221 865.549 159.727 867.951 156.738C870.354 153.691 871.555 149.414 871.555 143.906C871.555 132.07 866.692 126.152 856.965 126.152ZM863.645 211.23H849.758C844.836 211.23 840.705 212.373 837.365 214.658C834.084 217.061 832.444 220.107 832.444 223.799C832.444 227.549 834.231 230.479 837.805 232.588C841.379 234.697 846.33 235.752 852.658 235.752C862.268 235.752 869.797 234.434 875.246 231.797C880.696 229.16 883.42 225.557 883.42 220.986C883.42 217.412 881.838 214.893 878.674 213.428C875.569 211.963 870.559 211.23 863.645 211.23ZM1019.22 118.594C1030.59 112.676 1043.04 109.717 1056.58 109.717C1070.11 109.717 1080.34 112.617 1087.25 118.418C1094.22 124.219 1097.71 132.92 1097.71 144.521V210H1078.99L1073.8 196.641H1073.1C1068.59 202.383 1063.96 206.338 1059.21 208.506C1054.47 210.674 1048.23 211.758 1040.49 211.758C1031.12 211.758 1023.67 209.062 1018.17 203.672C1012.78 198.281 1010.08 190.518 1010.08 180.381C1010.08 170.244 1013.68 162.686 1020.89 157.705C1028.1 152.666 1039.14 149.883 1054.03 149.355L1071.08 148.828V144.521C1071.08 134.561 1065.98 129.58 1055.78 129.58C1047.93 129.58 1038.7 131.953 1028.1 136.699L1019.22 118.594ZM1037.59 180.82C1037.59 188.379 1041.93 192.158 1050.6 192.158C1056.87 192.158 1061.85 190.371 1065.54 186.797C1069.23 183.223 1071.08 178.477 1071.08 172.559V164.473L1060.71 164.824C1052.91 165.059 1047.11 166.465 1043.3 169.043C1039.5 171.621 1037.59 175.547 1037.59 180.82ZM1146.8 210H1119.99V73.2422H1146.8V210ZM1196.42 210H1169.61V73.2422H1196.42V210Z" fill="#021D41"/>
<path d="M989.553 162.275H1005.02V183.369H989.553V210H963.01V183.369H908.167V164.473L964.505 81.5039H989.553V162.275ZM963.01 162.275V140.479C963.01 137.607 963.128 132.598 963.362 125.449C963.655 118.301 963.919 114.023 964.153 112.617H963.45C961.047 117.891 958.44 122.578 955.628 126.68L932.073 162.275H963.01Z" fill="#FF0000"/>
</g>
<path d="M346.207 273.891H333.739V281.414H345.317V287.367H333.739V296.203H346.207V302.203H326.473V267.938H346.207V273.891ZM374.275 302.203H368.791L367.408 298.805H367.103C365.494 301.383 363.017 302.672 359.674 302.672C356.58 302.672 354.158 301.484 352.408 299.109C350.658 296.719 349.783 293.391 349.783 289.125C349.783 284.844 350.674 281.508 352.455 279.117C354.252 276.711 356.76 275.508 359.978 275.508C363.197 275.508 365.674 276.797 367.408 279.375H367.642C367.283 277.359 367.103 275.609 367.103 274.125V265.734H374.275V302.203ZM367.595 289.195C367.595 286.399 367.158 284.391 366.283 283.172C365.408 281.938 364.002 281.32 362.064 281.32C360.455 281.32 359.213 282 358.338 283.359C357.463 284.719 357.025 286.68 357.025 289.242C357.025 291.789 357.463 293.719 358.338 295.031C359.228 296.328 360.549 296.977 362.299 296.977C364.049 296.977 365.353 296.453 366.213 295.406C367.072 294.344 367.533 292.531 367.595 289.969V289.195ZM404.359 302.203H398.874L397.913 298.852H397.538C396.773 300.07 395.687 301.016 394.28 301.688C392.874 302.344 391.273 302.672 389.476 302.672C386.413 302.672 384.093 301.852 382.515 300.211C380.952 298.57 380.171 296.195 380.171 293.086V276H387.32V291.305C387.32 293.211 387.655 294.633 388.327 295.57C389.015 296.508 390.085 296.977 391.538 296.977C393.538 296.977 394.984 296.313 395.874 294.984C396.765 293.656 397.21 291.438 397.21 288.328V276H404.359V302.203ZM421.059 302.672C412.903 302.672 408.825 298.195 408.825 289.242C408.825 284.805 409.934 281.406 412.153 279.047C414.372 276.688 417.551 275.508 421.692 275.508C424.739 275.508 427.45 276.102 429.825 277.289L427.739 282.82C425.208 281.789 423.192 281.274 421.692 281.274C417.973 281.274 416.114 283.875 416.114 289.078C416.114 294.281 417.973 296.883 421.692 296.883C424.317 296.883 426.762 296.125 429.028 294.609V300.727C427.809 301.508 426.637 302.016 425.512 302.25C424.34 302.531 422.856 302.672 421.059 302.672ZM434.385 277.828C437.416 276.25 440.736 275.461 444.346 275.461C447.955 275.461 450.682 276.234 452.525 277.781C454.385 279.328 455.315 281.649 455.315 284.742V302.203H450.322L448.94 298.641H448.752C447.549 300.172 446.315 301.227 445.049 301.805C443.783 302.383 442.119 302.672 440.057 302.672C437.557 302.672 435.572 301.953 434.104 300.516C432.666 299.078 431.947 297.008 431.947 294.305C431.947 291.602 432.908 289.586 434.83 288.258C436.752 286.914 439.697 286.172 443.666 286.031L448.213 285.891V284.742C448.213 282.086 446.854 280.758 444.135 280.758C442.041 280.758 439.58 281.391 436.752 282.656L434.385 277.828ZM439.283 294.422C439.283 296.438 440.44 297.445 442.752 297.445C444.424 297.445 445.752 296.969 446.736 296.016C447.721 295.063 448.213 293.797 448.213 292.219V290.063L445.447 290.156C443.369 290.219 441.822 290.594 440.807 291.281C439.791 291.969 439.283 293.016 439.283 294.422ZM469.179 276H476.515V281.367H469.179V294C469.179 294.984 469.453 295.727 470 296.227C470.562 296.727 471.39 296.977 472.484 296.977C473.578 296.977 475.015 296.703 476.796 296.156V301.477C475.015 302.274 472.765 302.672 470.046 302.672C467.343 302.672 465.328 301.961 464 300.539C462.687 299.102 462.031 296.922 462.031 294V281.367H458.609V278.344L462.546 275.953L464.609 270.422H469.179V276ZM480.372 269.25C480.372 266.906 481.669 265.734 484.263 265.734C486.856 265.734 488.153 266.899 488.153 269.227C488.153 270.352 487.825 271.219 487.169 271.828C486.513 272.438 485.544 272.742 484.263 272.742C481.669 272.742 480.372 271.578 480.372 269.25ZM487.825 302.203H480.677V276H487.825V302.203ZM505.276 275.508C507.682 275.508 509.831 276.055 511.721 277.149C513.627 278.227 515.096 279.789 516.127 281.836C517.174 283.867 517.698 286.195 517.698 288.82C517.698 288.899 517.698 288.977 517.698 289.055C517.698 293.32 516.573 296.656 514.323 299.063C512.073 301.469 508.94 302.672 504.924 302.672C504.862 302.672 504.791 302.672 504.713 302.672C502.307 302.672 500.151 302.125 498.245 301.031C496.354 299.922 494.885 298.344 493.838 296.297C492.807 294.25 492.291 291.914 492.291 289.289C492.291 289.211 492.291 289.133 492.291 289.055C492.291 284.774 493.409 281.453 495.643 279.094C497.877 276.703 501.018 275.508 505.065 275.508C505.127 275.508 505.198 275.508 505.276 275.508ZM509.096 283.195C508.237 281.914 506.862 281.274 504.971 281.274C503.081 281.274 501.706 281.906 500.846 283.172C500.002 284.438 499.581 286.399 499.581 289.055C499.581 291.695 500.01 293.672 500.87 294.984C501.745 296.281 503.12 296.93 504.995 296.93C506.885 296.93 508.252 296.281 509.096 294.984C509.956 293.688 510.385 291.719 510.385 289.078C510.385 286.422 509.956 284.461 509.096 283.195ZM537.07 275.508C540.101 275.508 542.406 276.336 543.984 277.992C545.578 279.633 546.375 282.008 546.375 285.117V302.203H539.226V286.899C539.226 284.992 538.883 283.57 538.195 282.633C537.523 281.695 536.461 281.227 535.008 281.227C533.008 281.227 531.562 281.899 530.672 283.242C529.781 284.586 529.336 286.797 529.336 289.875V302.203H522.187V276H527.648L528.609 279.375H529.008C529.789 278.109 530.875 277.149 532.266 276.492C533.672 275.836 535.273 275.508 537.07 275.508ZM564.026 277.828C567.057 276.25 570.378 275.461 573.987 275.461C577.596 275.461 580.323 276.234 582.167 277.781C584.026 279.328 584.956 281.649 584.956 284.742V302.203H579.964L578.581 298.641H578.393C577.19 300.172 575.956 301.227 574.69 301.805C573.425 302.383 571.76 302.672 569.698 302.672C567.198 302.672 565.214 301.953 563.745 300.516C562.307 299.078 561.589 297.008 561.589 294.305C561.589 291.602 562.55 289.586 564.471 288.258C566.393 286.914 569.339 286.172 573.307 286.031L577.854 285.891V284.742C577.854 282.086 576.495 280.758 573.776 280.758C571.682 280.758 569.221 281.391 566.393 282.656L564.026 277.828ZM568.925 294.422C568.925 296.438 570.081 297.445 572.393 297.445C574.065 297.445 575.393 296.969 576.378 296.016C577.362 295.063 577.854 293.797 577.854 292.219V290.063L575.089 290.156C573.01 290.219 571.464 290.594 570.448 291.281C569.432 291.969 568.925 293.016 568.925 294.422ZM604.469 302.203H597.133L587.149 276H594.625L599.688 290.93C600.25 292.836 600.602 294.625 600.742 296.297H600.883C600.945 294.813 601.297 293.024 601.938 290.93L606.977 276H614.453L604.469 302.203ZM617.49 277.828C620.521 276.25 623.841 275.461 627.451 275.461C631.06 275.461 633.787 276.234 635.63 277.781C637.49 279.328 638.42 281.649 638.42 284.742V302.203H633.427L632.045 298.641H631.857C630.654 300.172 629.42 301.227 628.154 301.805C626.888 302.383 625.224 302.672 623.162 302.672C620.662 302.672 618.677 301.953 617.209 300.516C615.771 299.078 615.052 297.008 615.052 294.305C615.052 291.602 616.013 289.586 617.935 288.258C619.857 286.914 622.802 286.172 626.771 286.031L631.318 285.891V284.742C631.318 282.086 629.959 280.758 627.24 280.758C625.146 280.758 622.685 281.391 619.857 282.656L617.49 277.828ZM622.388 294.422C622.388 296.438 623.545 297.445 625.857 297.445C627.529 297.445 628.857 296.969 629.841 296.016C630.826 295.063 631.318 293.797 631.318 292.219V290.063L628.552 290.156C626.474 290.219 624.927 290.594 623.912 291.281C622.896 291.969 622.388 293.016 622.388 294.422ZM644.058 269.25C644.058 266.906 645.355 265.734 647.948 265.734C650.542 265.734 651.839 266.899 651.839 269.227C651.839 270.352 651.511 271.219 650.855 271.828C650.198 272.438 649.23 272.742 647.948 272.742C645.355 272.742 644.058 271.578 644.058 269.25ZM651.511 302.203H644.362V276H651.511V302.203ZM664.743 302.203H657.594V265.734H664.743V302.203ZM671.529 277.828C674.56 276.25 677.881 275.461 681.49 275.461C685.1 275.461 687.826 276.234 689.67 277.781C691.529 279.328 692.459 281.649 692.459 284.742V302.203H687.467L686.084 298.641H685.896C684.693 300.172 683.459 301.227 682.193 301.805C680.928 302.383 679.264 302.672 677.201 302.672C674.701 302.672 672.717 301.953 671.248 300.516C669.81 299.078 669.092 297.008 669.092 294.305C669.092 291.602 670.053 289.586 671.975 288.258C673.896 286.914 676.842 286.172 680.81 286.031L685.357 285.891V284.742C685.357 282.086 683.998 280.758 681.279 280.758C679.185 280.758 676.725 281.391 673.896 282.656L671.529 277.828ZM676.428 294.422C676.428 296.438 677.584 297.445 679.896 297.445C681.568 297.445 682.896 296.969 683.881 296.016C684.865 295.063 685.357 293.797 685.357 292.219V290.063L682.592 290.156C680.514 290.219 678.967 290.594 677.951 291.281C676.935 291.969 676.428 293.016 676.428 294.422ZM705.55 265.734V274.219C705.55 275.297 705.456 277.031 705.269 279.422H705.55C707.206 276.813 709.628 275.508 712.816 275.508C716.019 275.508 718.495 276.727 720.245 279.164C721.995 281.539 722.87 284.867 722.87 289.149C722.87 293.414 721.964 296.734 720.152 299.109C718.339 301.484 715.894 302.672 712.816 302.672C709.738 302.672 707.316 301.555 705.55 299.32H705.058L703.863 302.203H698.402V265.734H705.55ZM705.55 289.008C705.55 291.805 705.964 293.82 706.792 295.055C707.62 296.274 708.949 296.883 710.777 296.883C712.261 296.883 713.433 296.203 714.292 294.844C715.152 293.469 715.581 291.516 715.581 288.984C715.581 286.438 715.152 284.508 714.292 283.195C713.433 281.883 712.23 281.227 710.683 281.227C708.902 281.227 707.605 281.774 706.792 282.867C705.995 283.961 705.581 285.75 705.55 288.234V289.008ZM734.485 302.203H727.337V265.734H734.485V302.203ZM761.639 300.82C759.233 302.055 756.162 302.672 752.428 302.672C748.209 302.672 744.912 301.508 742.537 299.18C740.162 296.852 738.975 293.524 738.975 289.195C738.975 284.867 740.069 281.516 742.256 279.141C744.444 276.719 747.436 275.508 751.233 275.508C755.03 275.508 757.951 276.563 759.998 278.672C762.076 280.766 763.115 283.68 763.115 287.414V290.883H746.217C746.295 292.93 746.897 294.524 748.022 295.664C749.162 296.789 750.74 297.352 752.756 297.352C755.725 297.352 758.686 296.664 761.639 295.289V300.82ZM756.412 286.125C756.381 284.375 755.92 283.016 755.03 282.047C754.155 281.078 752.959 280.594 751.444 280.594C749.928 280.594 748.733 281.07 747.858 282.024C746.998 282.977 746.506 284.344 746.381 286.125H756.412ZM786.439 276H793.775V281.367H786.439V294C786.439 294.984 786.712 295.727 787.259 296.227C787.821 296.727 788.65 296.977 789.743 296.977C790.837 296.977 792.275 296.703 794.056 296.156V301.477C792.275 302.274 790.025 302.672 787.306 302.672C784.603 302.672 782.587 301.961 781.259 300.539C779.946 299.102 779.29 296.922 779.29 294V281.367H775.868V278.344L779.806 275.953L781.868 270.422H786.439V276ZM809.303 275.508C811.71 275.508 813.858 276.055 815.749 277.149C817.655 278.227 819.124 279.789 820.155 281.836C821.202 283.867 821.725 286.195 821.725 288.82C821.725 288.899 821.725 288.977 821.725 289.055C821.725 293.32 820.6 296.656 818.35 299.063C816.1 301.469 812.967 302.672 808.952 302.672C808.889 302.672 808.819 302.672 808.741 302.672C806.335 302.672 804.178 302.125 802.272 301.031C800.381 299.922 798.913 298.344 797.866 296.297C796.835 294.25 796.319 291.914 796.319 289.289C796.319 289.211 796.319 289.133 796.319 289.055C796.319 284.774 797.436 281.453 799.67 279.094C801.905 276.703 805.045 275.508 809.092 275.508C809.155 275.508 809.225 275.508 809.303 275.508ZM813.124 283.195C812.264 281.914 810.889 281.274 808.999 281.274C807.108 281.274 805.733 281.906 804.874 283.172C804.03 284.438 803.608 286.399 803.608 289.055C803.608 291.695 804.038 293.672 804.897 294.984C805.772 296.281 807.147 296.93 809.022 296.93C810.913 296.93 812.28 296.281 813.124 294.984C813.983 293.688 814.413 291.719 814.413 289.078C814.413 286.422 813.983 284.461 813.124 283.195ZM858.314 300.82C855.908 302.055 852.837 302.672 849.103 302.672C844.884 302.672 841.587 301.508 839.212 299.18C836.837 296.852 835.65 293.524 835.65 289.195C835.65 284.867 836.744 281.516 838.931 279.141C841.119 276.719 844.111 275.508 847.908 275.508C851.705 275.508 854.626 276.563 856.673 278.672C858.751 280.766 859.79 283.68 859.79 287.414V290.883H842.892C842.97 292.93 843.572 294.524 844.697 295.664C845.837 296.789 847.415 297.352 849.431 297.352C852.4 297.352 855.361 296.664 858.314 295.289V300.82ZM853.087 286.125C853.056 284.375 852.595 283.016 851.705 282.047C850.83 281.078 849.634 280.594 848.119 280.594C846.603 280.594 845.408 281.07 844.533 282.024C843.673 282.977 843.181 284.344 843.056 286.125H853.087ZM877.733 302.203H870.397L860.413 276H867.89L872.952 290.93C873.515 292.836 873.866 294.625 874.007 296.297H874.147C874.21 294.813 874.561 293.024 875.202 290.93L880.241 276H887.718L877.733 302.203ZM911.121 300.82C908.715 302.055 905.645 302.672 901.91 302.672C897.692 302.672 894.395 301.508 892.02 299.18C889.645 296.852 888.457 293.524 888.457 289.195C888.457 284.867 889.551 281.516 891.739 279.141C893.926 276.719 896.918 275.508 900.715 275.508C904.512 275.508 907.434 276.563 909.481 278.672C911.559 280.766 912.598 283.68 912.598 287.414V290.883H895.7C895.778 292.93 896.379 294.524 897.504 295.664C898.645 296.789 900.223 297.352 902.239 297.352C905.207 297.352 908.168 296.664 911.121 295.289V300.82ZM905.895 286.125C905.864 284.375 905.403 283.016 904.512 282.047C903.637 281.078 902.442 280.594 900.926 280.594C899.41 280.594 898.215 281.07 897.34 282.024C896.481 282.977 895.989 284.344 895.864 286.125H905.895ZM931.596 275.508C932.58 275.508 933.385 275.578 934.01 275.719L933.471 282.422C932.908 282.266 932.205 282.188 931.361 282.188C929.08 282.188 927.299 282.774 926.017 283.945C924.752 285.117 924.119 286.758 924.119 288.867V302.203H916.971V276H922.385L923.439 280.406H923.791C924.635 278.906 925.728 277.727 927.072 276.867C928.447 275.961 929.955 275.508 931.596 275.508ZM938.851 313.734C937.663 313.734 936.452 313.602 935.218 313.336V307.664C936.046 307.867 936.984 307.969 938.03 307.969C940.671 307.969 942.515 306.414 943.562 303.305L943.984 302.016L933.577 276H941.405L946.351 290.742C946.757 292.008 947.046 293.524 947.218 295.289H947.359C947.515 293.758 947.851 292.242 948.366 290.742L953.218 276H960.882L949.796 305.555C948.78 308.258 947.335 310.297 945.46 311.672C943.601 313.047 941.398 313.734 938.851 313.734ZM974.583 275.508C976.989 275.508 979.137 276.055 981.028 277.149C982.934 278.227 984.403 279.789 985.434 281.836C986.481 283.867 987.005 286.195 987.005 288.82C987.005 288.899 987.005 288.977 987.005 289.055C987.005 293.32 985.88 296.656 983.63 299.063C981.38 301.469 978.247 302.672 974.231 302.672C974.169 302.672 974.098 302.672 974.02 302.672C971.614 302.672 969.458 302.125 967.551 301.031C965.661 299.922 964.192 298.344 963.145 296.297C962.114 294.25 961.598 291.914 961.598 289.289C961.598 289.211 961.598 289.133 961.598 289.055C961.598 284.774 962.716 281.453 964.95 279.094C967.184 276.703 970.325 275.508 974.372 275.508C974.434 275.508 974.505 275.508 974.583 275.508ZM978.403 283.195C977.544 281.914 976.169 281.274 974.278 281.274C972.387 281.274 971.012 281.906 970.153 283.172C969.309 284.438 968.887 286.399 968.887 289.055C968.887 291.695 969.317 293.672 970.176 294.984C971.051 296.281 972.426 296.93 974.301 296.93C976.192 296.93 977.559 296.281 978.403 294.984C979.262 293.688 979.692 291.719 979.692 289.078C979.692 286.422 979.262 284.461 978.403 283.195ZM1006.38 275.508C1009.41 275.508 1011.71 276.336 1013.29 277.992C1014.88 279.633 1015.68 282.008 1015.68 285.117V302.203H1008.53V286.899C1008.53 284.992 1008.19 283.57 1007.5 282.633C1006.83 281.695 1005.77 281.227 1004.31 281.227C1002.31 281.227 1000.87 281.899 999.979 283.242C999.088 284.586 998.643 286.797 998.643 289.875V302.203H991.494V276H996.955L997.916 279.375H998.315C999.096 278.109 1000.18 277.149 1001.57 276.492C1002.98 275.836 1004.58 275.508 1006.38 275.508ZM1042.67 300.82C1040.27 302.055 1037.19 302.672 1033.46 302.672C1029.24 302.672 1025.94 301.508 1023.57 299.18C1021.19 296.852 1020.01 293.524 1020.01 289.195C1020.01 284.867 1021.1 281.516 1023.29 279.141C1025.48 276.719 1028.47 275.508 1032.27 275.508C1036.06 275.508 1038.98 276.563 1041.03 278.672C1043.11 280.766 1044.15 283.68 1044.15 287.414V290.883H1027.25C1027.33 292.93 1027.93 294.524 1029.05 295.664C1030.19 296.789 1031.77 297.352 1033.79 297.352C1036.76 297.352 1039.72 296.664 1042.67 295.289V300.82ZM1037.44 286.125C1037.41 284.375 1036.95 283.016 1036.06 282.047C1035.19 281.078 1033.99 280.594 1032.48 280.594C1030.96 280.594 1029.77 281.07 1028.89 282.024C1028.03 282.977 1027.54 284.344 1027.41 286.125H1037.44Z" fill="#021D41"/>
<defs>
<filter id="filter0_d_304_19" x="168.392" y="73.2422" width="1032.03" height="188" filterUnits="userSpaceOnUse" color-interpolation-filters="sRGB">
<feFlood flood-opacity="0" result="BackgroundImageFix"/>
<feColorMatrix in="SourceAlpha" type="matrix" values="0 0 0 0 0 0 0 0 0 0 0 0 0 0 0 0 0 0 127 0" result="hardAlpha"/>
<feOffset dy="4"/>
<feGaussianBlur stdDeviation="2"/>
<feComposite in2="hardAlpha" operator="out"/>
<feColorMatrix type="matrix" values="0 0 0 0 0 0 0 0 0 0 0 0 0 0 0 0 0 0 0.25 0"/>
<feBlend mode="normal" in2="BackgroundImageFix" result="effect1_dropShadow_304_19"/>
<feBlend mode="normal" in="SourceGraphic" in2="effect1_dropShadow_304_19" result="shape"/>
</filter>
</defs>
</svg>
